<svg width="70" height="70" viewBox="0 0 70 70" fill="none" xmlns="http://www.w3.org/2000/svg">
<path d="M0 35C0 15.67 15.67 0 35 0C54.33 0 70 15.67 70 35C70 54.33 54.33 70 35 70C15.67 70 0 54.33 0 35Z" fill="#C7001D"/>
<path d="M37.2569 53.1056C37.2569 53.2018 37.2682 53.2919 37.2906 53.3758C37.3152 53.4577 37.3499 53.5293 37.395 53.5907C37.4401 53.65 37.4963 53.6972 37.5639 53.7319C37.6314 53.7667 37.7082 53.7841 37.7941 53.7841C37.8677 53.7849 37.9407 53.7714 38.009 53.7442C38.0745 53.7156 38.1319 53.6746 38.181 53.6214C38.2301 53.5682 38.2679 53.5038 38.2946 53.428C38.3232 53.3503 38.3376 53.2612 38.3376 53.1609C38.3422 53.0671 38.334 52.9731 38.313 52.8815C38.2925 52.7934 38.2598 52.7167 38.2147 52.6512C38.1702 52.5862 38.11 52.5334 38.0397 52.4977C37.9701 52.4588 37.8883 52.4394 37.7941 52.4394C37.7149 52.4382 37.6368 52.4573 37.5669 52.4947C37.5009 52.5299 37.4432 52.5792 37.3981 52.639C37.3508 52.7027 37.3155 52.7745 37.2937 52.8508C37.2691 52.9306 37.2569 53.0156 37.2569 53.1056ZM37.2569 53.9069H37.0726V51.6964H37.2569V52.5714C37.3162 52.4732 37.3971 52.3995 37.4994 52.3504C37.6005 52.2999 37.7119 52.2737 37.8248 52.2736C37.9456 52.2736 38.0499 52.2972 38.138 52.3442C38.2253 52.3871 38.3012 52.4502 38.359 52.5284C38.4202 52.6079 38.4651 52.6987 38.4911 52.7955C38.5197 52.8978 38.534 53.0043 38.534 53.1148C38.534 53.2315 38.5208 53.341 38.4941 53.4433C38.4675 53.5456 38.4245 53.6347 38.3652 53.7104C38.3063 53.7854 38.2306 53.8453 38.1441 53.8854C38.0541 53.9284 37.9446 53.9499 37.8156 53.9499C37.7644 53.9499 37.7122 53.9428 37.659 53.9284C37.6048 53.9137 37.5523 53.8931 37.5025 53.867C37.4527 53.8399 37.4063 53.8069 37.3643 53.7688C37.3231 53.7275 37.2889 53.6798 37.263 53.6276H37.2569V53.9069ZM38.9157 54.3398L38.9894 54.3521C39.0161 54.3562 39.0426 54.3583 39.0692 54.3583C39.1205 54.3583 39.1623 54.3419 39.1951 54.3091C39.2279 54.2763 39.2544 54.2364 39.2749 54.1894C39.2979 54.1432 39.3164 54.0948 39.3302 54.0451C39.3446 53.996 39.3609 53.954 39.3793 53.9192L38.7622 52.3166H38.9679L39.4776 53.6828L39.9872 52.3166H40.1868L39.5942 53.8854C39.5574 53.9858 39.5215 54.0758 39.4868 54.1556C39.454 54.2354 39.4183 54.303 39.3793 54.3583C39.3425 54.4156 39.3005 54.4586 39.2535 54.4872C39.2084 54.5179 39.1542 54.5333 39.0907 54.5333C39.0579 54.5333 39.0263 54.5312 38.9956 54.5271C38.9687 54.5234 38.9421 54.5183 38.9157 54.5118V54.3398ZM43.0799 53.6122H43.086L43.568 51.6964H43.7829L43.2027 53.9069H42.9724L42.4597 51.9543H42.4536L41.9408 53.9069H41.7106L41.1395 51.6964H41.3483L41.8242 53.6122H41.8303L42.343 51.6964H42.5764L43.0799 53.6122ZM44.0736 53.9069V51.6964H45.5442V51.8745H44.2824V52.6727H45.4214V52.8508H44.2824V53.7289H45.5749V53.9069H44.0736ZM45.9413 53.9069V51.6964H46.2606L46.9851 53.646H46.9913L47.7036 51.6964H48.0198V53.9069H47.811V51.9359H47.8049L47.0803 53.9069H46.8838L46.1562 51.9359H46.15V53.9069H45.9413ZM48.3053 53.9069L49.1742 51.6964H49.4106L50.2579 53.9069H50.043L49.7882 53.2131H48.7812L48.5202 53.9069H48.3053ZM48.8518 53.035H49.7176L49.2847 51.8745L48.8518 53.035ZM23.7088 48.3009H21.6196L21.2999 48.9947H19.7721V48.7958L22.3368 43.3508H23.0072L25.5445 48.7958V48.9947H24.0362L23.7088 48.3009ZM22.6642 45.7284L22.0874 47.077H23.2449L22.6642 45.7284ZM30.6124 43.4054V47.6851H32.6354V48.9947H29.1547V43.4054H30.6124ZM40.4064 48.3009H38.3173L37.9976 48.9947H36.4698V48.7958L39.0345 43.3508H39.7049L42.2422 48.7958V48.9947H40.7338L40.4064 48.3009ZM39.3619 45.7284L38.7849 47.077H39.9426L39.3619 45.7284ZM47.2703 44.6838H45.8983V43.4054H50.0493V44.6838H48.6852V48.9947H47.2703V44.6838ZM17.0703 39.5438H35.6176C35.9827 39.5438 36.2202 39.1596 36.057 38.8329L35.6756 38.0701L34.8773 36.6579L34.8362 36.5893C34.7926 36.5166 34.7308 36.4564 34.657 36.4146C34.5832 36.3728 34.4998 36.3508 34.415 36.3508H22.6578C22.2778 36.3508 22.0417 35.9378 22.2346 35.6103L29.9131 22.5733C30.1025 22.2519 30.5669 22.2504 30.7582 22.5707L40.7519 39.3045C40.7955 39.3774 40.8573 39.4379 40.9312 39.4798C41.0051 39.5218 41.0887 39.5438 41.1737 39.5438H52.5703C52.9484 39.5438 53.1848 39.1344 52.9957 38.807L39.3788 15.2281C39.3357 15.1534 39.2737 15.0914 39.199 15.0483C39.1244 15.0052 39.0397 14.9825 38.9534 14.9825H36.5118C36.137 14.9825 35.9002 15.3854 36.0828 15.7129L47.1806 35.6204C47.3633 35.9479 47.1265 36.3508 46.7517 36.3508H43.0806C42.9947 36.3509 42.9103 36.3283 42.8359 36.2855C42.7614 36.2427 42.6995 36.1812 42.6563 36.1069L30.844 15.8404C30.8008 15.7662 30.7389 15.7046 30.6644 15.6618C30.59 15.619 30.5056 15.5965 30.4197 15.5965H30.3703C30.2844 15.5965 30.2 15.619 30.1255 15.6619C30.051 15.7047 29.989 15.7664 29.9458 15.8406L16.6458 38.6924C16.6021 38.7674 16.5791 38.8527 16.5791 38.9395V39.0526C16.5791 39.1829 16.6309 39.3078 16.723 39.3999C16.8151 39.4921 16.94 39.5438 17.0703 39.5438Z" fill="white"/>
</svg>
