<svg width="50" height="50" viewBox="0 0 50 50" fill="none" xmlns="http://www.w3.org/2000/svg">
<path d="M17.1875 40.625V46.875V40.625ZM7.8125 3.125H26.5625C27.3913 3.125 28.1862 3.45424 28.7722 4.04029C29.3583 4.62634 29.6875 5.4212 29.6875 6.25V46.4844C29.6875 46.588 29.6463 46.6873 29.5731 46.7606C29.4998 46.8338 29.4005 46.875 29.2969 46.875H4.6875V6.25C4.6875 5.4212 5.01674 4.62634 5.60279 4.04029C6.18884 3.45424 6.9837 3.125 7.8125 3.125V3.125ZM31.25 18.75H42.1875C43.0163 18.75 43.8112 19.0792 44.3972 19.6653C44.9833 20.2513 45.3125 21.0462 45.3125 21.875V46.875H29.6875V20.3125C29.6875 19.8981 29.8521 19.5007 30.1451 19.2076C30.4382 18.9146 30.8356 18.75 31.25 18.75Z" stroke="black" stroke-opacity="0.7" stroke-width="3" stroke-linecap="round" stroke-linejoin="round"/>
<path d="M9.57717 42.1564C9.25374 42.1987 8.92518 42.1387 8.63761 41.9847C8.35004 41.8308 8.11789 41.5907 7.97375 41.298C7.8296 41.0054 7.7807 40.675 7.8339 40.3532C7.88711 40.0314 8.03974 39.7343 8.27039 39.5037C8.50104 39.273 8.79812 39.1204 9.11994 39.0672C9.44176 39.014 9.77216 39.0629 10.0648 39.207C10.3574 39.3512 10.5975 39.5833 10.7515 39.8709C10.9054 40.1585 10.9654 40.487 10.9231 40.8104C10.8785 41.1518 10.7223 41.4688 10.4789 41.7122C10.2355 41.9556 9.9185 42.1118 9.57717 42.1564ZM9.57717 34.3481C9.25374 34.3904 8.92518 34.3304 8.63761 34.1764C8.35004 34.0225 8.11789 33.7823 7.97375 33.4897C7.8296 33.1971 7.7807 32.8667 7.8339 32.5449C7.88711 32.2231 8.03974 31.926 8.27039 31.6954C8.50104 31.4647 8.79812 31.3121 9.11994 31.2589C9.44176 31.2057 9.77216 31.2546 10.0648 31.3987C10.3574 31.5428 10.5975 31.775 10.7515 32.0626C10.9054 32.3501 10.9654 32.6787 10.9231 33.0021C10.8785 33.3435 10.7223 33.6605 10.4789 33.9039C10.2355 34.1473 9.9185 34.3034 9.57717 34.3481ZM9.57717 26.5398C9.25374 26.5821 8.92518 26.522 8.63761 26.3681C8.35004 26.2141 8.11789 25.974 7.97375 25.6814C7.8296 25.3888 7.7807 25.0584 7.8339 24.7366C7.88711 24.4148 8.03974 24.1177 8.27039 23.887C8.50104 23.6564 8.79812 23.5037 9.11994 23.4505C9.44176 23.3973 9.77216 23.4462 10.0648 23.5904C10.3574 23.7345 10.5975 23.9667 10.7515 24.2542C10.9054 24.5418 10.9654 24.8704 10.9231 25.1938C10.8785 25.5351 10.7223 25.8521 10.4789 26.0956C10.2355 26.339 9.9185 26.4951 9.57717 26.5398ZM9.57717 18.7315C9.25374 18.7738 8.92518 18.7137 8.63761 18.5598C8.35004 18.4058 8.11789 18.1657 7.97375 17.8731C7.8296 17.5805 7.7807 17.2501 7.8339 16.9283C7.88711 16.6064 8.03974 16.3094 8.27039 16.0787C8.50104 15.8481 8.79812 15.6954 9.11994 15.6422C9.44176 15.589 9.77216 15.6379 10.0648 15.7821C10.3574 15.9262 10.5975 16.1584 10.7515 16.4459C10.9054 16.7335 10.9654 17.0621 10.9231 17.3855C10.8785 17.7268 10.7223 18.0438 10.4789 18.2872C10.2355 18.5306 9.9185 18.6868 9.57717 18.7315ZM9.57717 10.9231C9.25374 10.9654 8.92518 10.9054 8.63761 10.7514C8.35004 10.5975 8.11789 10.3574 7.97375 10.0648C7.8296 9.77215 7.7807 9.44176 7.8339 9.11994C7.88711 8.79812 8.03974 8.50104 8.27039 8.27039C8.50104 8.03974 8.79812 7.88711 9.11994 7.8339C9.44176 7.7807 9.77216 7.8296 10.0648 7.97375C10.3574 8.11789 10.5975 8.35004 10.7515 8.63761C10.9054 8.92518 10.9654 9.25374 10.9231 9.57717C10.8785 9.9185 10.7223 10.2355 10.4789 10.4789C10.2355 10.7223 9.9185 10.8785 9.57717 10.9231ZM17.3855 34.3481C17.0621 34.3904 16.7335 34.3304 16.4459 34.1764C16.1584 34.0225 15.9262 33.7823 15.7821 33.4897C15.6379 33.1971 15.589 32.8667 15.6422 32.5449C15.6954 32.2231 15.8481 31.926 16.0787 31.6954C16.3094 31.4647 16.6065 31.3121 16.9283 31.2589C17.2501 31.2057 17.5805 31.2546 17.8731 31.3987C18.1657 31.5428 18.4058 31.775 18.5598 32.0626C18.7137 32.3501 18.7738 32.6787 18.7315 33.0021C18.6868 33.3435 18.5307 33.6605 18.2873 33.9039C18.0438 34.1473 17.7268 34.3034 17.3855 34.3481ZM17.3855 26.5398C17.0621 26.5821 16.7335 26.522 16.4459 26.3681C16.1584 26.2141 15.9262 25.974 15.7821 25.6814C15.6379 25.3888 15.589 25.0584 15.6422 24.7366C15.6954 24.4148 15.8481 24.1177 16.0787 23.887C16.3094 23.6564 16.6065 23.5037 16.9283 23.4505C17.2501 23.3973 17.5805 23.4462 17.8731 23.5904C18.1657 23.7345 18.4058 23.9667 18.5598 24.2542C18.7137 24.5418 18.7738 24.8704 18.7315 25.1938C18.6868 25.5351 18.5307 25.8521 18.2873 26.0956C18.0438 26.339 17.7268 26.4951 17.3855 26.5398ZM17.3855 18.7315C17.0621 18.7738 16.7335 18.7137 16.4459 18.5598C16.1584 18.4058 15.9262 18.1657 15.7821 17.8731C15.6379 17.5805 15.589 17.2501 15.6422 16.9283C15.6954 16.6064 15.8481 16.3094 16.0787 16.0787C16.3094 15.8481 16.6065 15.6954 16.9283 15.6422C17.2501 15.589 17.5805 15.6379 17.8731 15.7821C18.1657 15.9262 18.4058 16.1584 18.5598 16.4459C18.7137 16.7335 18.7738 17.0621 18.7315 17.3855C18.6868 17.7268 18.5307 18.0438 18.2873 18.2872C18.0438 18.5306 17.7268 18.6868 17.3855 18.7315ZM17.3855 10.9231C17.0621 10.9654 16.7335 10.9054 16.4459 10.7514C16.1584 10.5975 15.9262 10.3574 15.7821 10.0648C15.6379 9.77215 15.589 9.44176 15.6422 9.11994C15.6954 8.79812 15.8481 8.50104 16.0787 8.27039C16.3094 8.03974 16.6065 7.88711 16.9283 7.8339C17.2501 7.7807 17.5805 7.8296 17.8731 7.97375C18.1657 8.11789 18.4058 8.35004 18.5598 8.63761C18.7137 8.92518 18.7738 9.25374 18.7315 9.57717C18.6868 9.9185 18.5307 10.2355 18.2873 10.4789C18.0438 10.7223 17.7268 10.8785 17.3855 10.9231ZM25.1938 42.1564C24.8704 42.1987 24.5418 42.1387 24.2543 41.9847C23.9667 41.8308 23.7346 41.5907 23.5904 41.298C23.4463 41.0054 23.3974 40.675 23.4506 40.3532C23.5038 40.0314 23.6564 39.7343 23.8871 39.5037C24.1177 39.273 24.4148 39.1204 24.7366 39.0672C25.0584 39.014 25.3888 39.0629 25.6814 39.207C25.974 39.3512 26.2142 39.5833 26.3681 39.8709C26.5221 40.1585 26.5821 40.487 26.5398 40.8104C26.4952 41.1518 26.339 41.4688 26.0956 41.7122C25.8522 41.9556 25.5352 42.1118 25.1938 42.1564ZM25.1938 34.3481C24.8704 34.3904 24.5418 34.3304 24.2543 34.1764C23.9667 34.0225 23.7346 33.7823 23.5904 33.4897C23.4463 33.1971 23.3974 32.8667 23.4506 32.5449C23.5038 32.2231 23.6564 31.926 23.8871 31.6954C24.1177 31.4647 24.4148 31.3121 24.7366 31.2589C25.0584 31.2057 25.3888 31.2546 25.6814 31.3987C25.974 31.5428 26.2142 31.775 26.3681 32.0626C26.5221 32.3501 26.5821 32.6787 26.5398 33.0021C26.4952 33.3435 26.339 33.6605 26.0956 33.9039C25.8522 34.1473 25.5352 34.3034 25.1938 34.3481ZM25.1938 26.5398C24.8704 26.5821 24.5418 26.522 24.2543 26.3681C23.9667 26.2141 23.7346 25.974 23.5904 25.6814C23.4463 25.3888 23.3974 25.0584 23.4506 24.7366C23.5038 24.4148 23.6564 24.1177 23.8871 23.887C24.1177 23.6564 24.4148 23.5037 24.7366 23.4505C25.0584 23.3973 25.3888 23.4462 25.6814 23.5904C25.974 23.7345 26.2142 23.9667 26.3681 24.2542C26.5221 24.5418 26.5821 24.8704 26.5398 25.1938C26.4952 25.5351 26.339 25.8521 26.0956 26.0956C25.8522 26.339 25.5352 26.4951 25.1938 26.5398Z" fill="black" fill-opacity="0.7"/>
<path d="M24.6518 17.8054C24.9931 17.4641 24.9917 16.9093 24.6487 16.5662C24.3057 16.2232 23.7509 16.2218 23.4095 16.5631C23.0682 16.9045 23.0696 17.4592 23.4126 17.8023C23.7557 18.1453 24.3105 18.1467 24.6518 17.8054Z" fill="black" fill-opacity="0.7"/>
<path d="M25.263 11.0304C24.9284 11.0741 24.5885 11.012 24.291 10.8527C23.9936 10.6935 23.7534 10.4451 23.6043 10.1424C23.4552 9.83969 23.4046 9.49791 23.4596 9.16499C23.5147 8.83208 23.6726 8.52476 23.9112 8.28616C24.1498 8.04756 24.4571 7.88966 24.79 7.83462C25.1229 7.77959 25.4647 7.83018 25.7674 7.97929C26.0701 8.1284 26.3185 8.36855 26.4777 8.66604C26.637 8.96352 26.6991 9.30341 26.6553 9.63799C26.6092 9.99108 26.4476 10.319 26.1958 10.5708C25.944 10.8226 25.6161 10.9842 25.263 11.0304ZM39.5925 40.1225C39.273 40.1225 38.9606 40.2172 38.695 40.3948C38.4293 40.5723 38.2222 40.8246 38.1 41.1198C37.9777 41.415 37.9457 41.7398 38.008 42.0532C38.0704 42.3665 38.2242 42.6544 38.4502 42.8803C38.6761 43.1063 38.9639 43.2601 39.2773 43.3225C39.5907 43.3848 39.9155 43.3528 40.2107 43.2305C40.5059 43.1082 40.7582 42.9012 40.9357 42.6355C41.1132 42.3699 41.208 42.0575 41.208 41.738C41.208 41.3095 41.0378 40.8986 40.7348 40.5957C40.4319 40.2927 40.0209 40.1225 39.5925 40.1225ZM39.5925 32.045C39.273 32.045 38.9606 32.1397 38.695 32.3172C38.4293 32.4948 38.2222 32.7471 38.1 33.0423C37.9777 33.3375 37.9457 33.6623 38.008 33.9757C38.0704 34.289 38.2242 34.5769 38.4502 34.8028C38.6761 35.0288 38.9639 35.1826 39.2773 35.2449C39.5907 35.3073 39.9155 35.2753 40.2107 35.153C40.5059 35.0307 40.7582 34.8237 40.9357 34.558C41.1132 34.2923 41.208 33.98 41.208 33.6605C41.208 33.232 41.0378 32.8211 40.7348 32.5182C40.4319 32.2152 40.0209 32.045 39.5925 32.045ZM39.5925 23.9675C39.273 23.9675 38.9606 24.0622 38.695 24.2397C38.4293 24.4173 38.2222 24.6696 38.1 24.9648C37.9777 25.26 37.9457 25.5848 38.008 25.8982C38.0704 26.2115 38.2242 26.4994 38.4502 26.7253C38.6761 26.9513 38.9639 27.1051 39.2773 27.1674C39.5907 27.2298 39.9155 27.1978 40.2107 27.0755C40.5059 26.9532 40.7582 26.7462 40.9357 26.4805C41.1132 26.2148 41.208 25.9025 41.208 25.583C41.208 25.1545 41.0378 24.7436 40.7348 24.4407C40.4319 24.1377 40.0209 23.9675 39.5925 23.9675ZM33.1305 40.1225C32.811 40.1225 32.4986 40.2172 32.233 40.3948C31.9673 40.5723 31.7602 40.8246 31.638 41.1198C31.5157 41.415 31.4837 41.7398 31.546 42.0532C31.6084 42.3665 31.7622 42.6544 31.9881 42.8803C32.2141 43.1063 32.5019 43.2601 32.8153 43.3225C33.1287 43.3848 33.4535 43.3528 33.7487 43.2305C34.0439 43.1082 34.2962 42.9012 34.4737 42.6355C34.6512 42.3699 34.746 42.0575 34.746 41.738C34.746 41.3095 34.5758 40.8986 34.2728 40.5957C33.9699 40.2927 33.5589 40.1225 33.1305 40.1225ZM33.1305 32.045C32.811 32.045 32.4986 32.1397 32.233 32.3172C31.9673 32.4948 31.7602 32.7471 31.638 33.0423C31.5157 33.3375 31.4837 33.6623 31.546 33.9757C31.6084 34.289 31.7622 34.5769 31.9881 34.8028C32.2141 35.0288 32.5019 35.1826 32.8153 35.2449C33.1287 35.3073 33.4535 35.2753 33.7487 35.153C34.0439 35.0307 34.2962 34.8237 34.4737 34.558C34.6512 34.2923 34.746 33.98 34.746 33.6605C34.746 33.232 34.5758 32.8211 34.2728 32.5182C33.9699 32.2152 33.5589 32.045 33.1305 32.045ZM33.1305 23.9675C32.811 23.9675 32.4986 24.0622 32.233 24.2397C31.9673 24.4173 31.7602 24.6696 31.638 24.9648C31.5157 25.26 31.4837 25.5848 31.546 25.8982C31.6084 26.2115 31.7622 26.4994 31.9881 26.7253C32.2141 26.9513 32.5019 27.1051 32.8153 27.1674C33.1287 27.2298 33.4535 27.1978 33.7487 27.0755C34.0439 26.9532 34.2962 26.7462 34.4737 26.4805C34.6512 26.2148 34.746 25.9025 34.746 25.583C34.746 25.1545 34.5758 24.7436 34.2728 24.4407C33.9699 24.1377 33.5589 23.9675 33.1305 23.9675Z" fill="black" fill-opacity="0.7"/>
</svg>
