<svg width="251" height="69" viewBox="0 0 251 69" fill="none" xmlns="http://www.w3.org/2000/svg">
<g clip-path="url(#clip0_18_316)">
<path fill-rule="evenodd" clip-rule="evenodd" d="M82.5779 35.7743L83.4268 30.9528C83.4268 30.9528 76.8894 28.8349 71.5688 32.7628V52.0502H77.2189V36.38C79.4704 34.5701 82.5779 35.7743 82.5779 35.7743Z" fill="#03435F"/>
<mask id="mask0_18_316" style="mask-type:alpha" maskUnits="userSpaceOnUse" x="71" y="30" width="13" height="23">
<path d="M71.5686 32.7625C74.1286 30.8731 76.9704 30.3826 79.2301 30.3829C81.6669 30.3829 83.427 30.953 83.427 30.953L82.5777 35.7744C82.5777 35.7744 79.4703 34.5702 77.2187 36.3798V52.05H71.5686V32.7625Z" fill="white"/>
</mask>
<g mask="url(#mask0_18_316)">
<path fill-rule="evenodd" clip-rule="evenodd" d="M-272.372 111.829L523.309 111.829L523.309 -1012.61H-272.372L-272.372 111.829Z" fill="#03435F"/>
</g>
<mask id="mask1_18_316" style="mask-type:alpha" maskUnits="userSpaceOnUse" x="71" y="30" width="13" height="23">
<path d="M71.5686 32.7625C74.1286 30.8731 76.9701 30.3829 79.2301 30.3829C81.6669 30.3829 83.427 30.953 83.427 30.953L82.5777 35.7744C82.5777 35.7744 79.4703 34.5702 77.2187 36.3798V52.05H71.5686V32.7625Z" fill="white"/>
</mask>
<g mask="url(#mask1_18_316)">
<path fill-rule="evenodd" clip-rule="evenodd" d="M62.0962 61.4993H92.8993V20.9338H62.0962V61.4993Z" fill="#03435F"/>
</g>
<path fill-rule="evenodd" clip-rule="evenodd" d="M33.867 25.4541L39.5146 24.3928V30.6656H45.103V35.6821H39.5146V43.1632C39.5146 44.4376 39.7211 45.4493 40.1436 46.1974C40.5612 46.9571 41.3987 47.3335 42.6563 47.3335C43.2713 47.3335 43.8889 47.2747 44.5404 47.1499C45.1735 47.0229 45.7638 46.8599 46.295 46.6465L47.0941 51.3453C46.4105 51.6379 45.6549 51.8918 44.8219 52.1071C43.9863 52.3202 42.9603 52.4313 41.748 52.4313C40.207 52.4313 38.9335 52.2072 37.9208 51.7626C36.9132 51.3181 36.1031 50.6943 35.4992 49.8983C34.8952 49.1092 34.4706 48.141 34.2323 47.0071C33.9895 45.8754 33.867 44.6256 33.867 43.2471V25.4541Z" fill="#03435F"/>
<mask id="mask2_18_316" style="mask-type:alpha" maskUnits="userSpaceOnUse" x="33" y="24" width="15" height="29">
<path d="M33.8673 25.454L39.5148 24.3926V30.6655H45.1033V35.682H39.5148V43.1631C39.5148 44.4379 39.7214 45.4492 40.1435 46.1973C40.5611 46.9573 41.3985 47.3334 42.6562 47.3334C43.2712 47.3334 43.8884 47.2745 44.5403 47.1498C45.1734 47.0228 45.764 46.8598 46.2953 46.6467L47.094 51.3452C46.4108 51.6381 45.6548 51.8921 44.8218 52.1074C43.9862 52.3204 42.9602 52.4312 41.7479 52.4312C40.2065 52.4312 38.9334 52.2071 37.9211 51.7625C36.9131 51.318 36.1026 50.6942 35.499 49.8985C34.8951 49.1091 34.4708 48.1409 34.2325 47.007C33.9894 45.8753 33.8673 44.6259 33.8673 43.247V25.454Z" fill="white"/>
</mask>
<g mask="url(#mask2_18_316)">
<path fill-rule="evenodd" clip-rule="evenodd" d="M-272.372 111.829L523.309 111.829L523.309 -1012.61H-272.372L-272.372 111.829Z" fill="#03435F"/>
<path fill-rule="evenodd" clip-rule="evenodd" d="M24.3944 61.8804H56.566V14.9433H24.3944L24.3944 61.8804Z" fill="#03435F"/>
</g>
<path fill-rule="evenodd" clip-rule="evenodd" d="M91.7919 47.7309C92.8249 47.7309 93.5557 47.6171 93.9896 47.4041C94.4205 47.1888 94.6293 46.767 94.6293 46.1502C94.6293 45.6626 94.357 45.2386 93.7985 44.878C93.2403 44.5107 92.4002 44.1026 91.261 43.6374C90.3778 43.286 89.5743 42.9235 88.8501 42.5492C88.1351 42.1683 87.5223 41.7237 87.0161 41.1952C86.5118 40.6694 86.1214 40.0386 85.8399 39.304C85.5585 38.5827 85.4249 37.7097 85.4249 36.68C85.4249 34.6865 86.1214 33.1058 87.5086 31.947C88.8976 30.7928 90.8002 30.2033 93.2289 30.2033C94.4433 30.2033 95.6055 30.3188 96.7178 30.5525C97.8279 30.7793 98.7156 31.0379 99.3667 31.2985L98.3839 35.9926C97.7257 35.7501 97.0107 35.537 96.2412 35.3511C95.4715 35.1608 94.6046 35.0608 93.6465 35.0608C91.8782 35.0608 90.9928 35.5914 90.9928 36.6414C90.9928 36.8839 91.0315 37.0996 91.1086 37.2876C91.1857 37.4783 91.3359 37.6597 91.5584 37.8342C91.7919 38.0068 92.0962 38.2014 92.491 38.4013C92.8835 38.6121 93.3831 38.8296 93.9896 39.0769C95.2218 39.5668 96.2456 40.043 97.0539 40.524C97.864 41.0046 98.4997 41.5106 98.9697 42.0726C99.4372 42.6217 99.7688 43.2297 99.9548 43.905C100.141 44.5788 100.238 45.3564 100.238 46.2434C100.238 48.3455 99.4984 49.9349 98.0253 51.0099C96.5452 52.0805 94.4522 52.62 91.7487 52.62C89.9826 52.62 88.5117 52.4636 87.3382 52.135C86.1602 51.8152 85.3474 51.5388 84.8936 51.3253L85.8399 46.4314C86.7958 46.8351 87.7901 47.1479 88.7936 47.3842C89.8104 47.6153 90.8002 47.7309 91.7919 47.7309Z" fill="#03435F"/>
<mask id="mask3_18_316" style="mask-type:alpha" maskUnits="userSpaceOnUse" x="84" y="30" width="17" height="23">
<path d="M87.5084 31.9473C88.8978 30.7928 90.8 30.2033 93.2287 30.2033C94.4435 30.2033 95.6057 30.3188 96.718 30.5525C97.8277 30.7793 98.7153 31.0376 99.3668 31.2985L98.384 35.9926C97.7255 35.7501 97.0109 35.537 96.241 35.3511C95.4717 35.1605 94.6044 35.0611 93.6466 35.0611C91.878 35.0611 90.993 35.5911 90.993 36.6414C90.993 36.8839 91.0313 37.0996 91.1084 37.2876C91.1859 37.4783 91.3361 37.6597 91.5585 37.8342C91.7917 38.0068 92.0964 38.2014 92.4912 38.4013C92.8837 38.6118 93.3829 38.83 93.9894 39.0769C95.222 39.5668 96.2458 40.043 97.0537 40.524C97.8642 41.0046 98.4999 41.5103 98.9699 42.0726C99.4373 42.6217 99.7686 43.2293 99.9549 43.905C100.141 44.5788 100.238 45.3564 100.238 46.2434C100.238 48.3455 99.4982 49.9353 98.0254 51.0099C96.5453 52.0805 94.4524 52.62 91.7489 52.62C89.9828 52.62 88.5119 52.4636 87.3384 52.135C86.16 51.8152 85.3477 51.5388 84.8935 51.3253L85.8402 46.4314C86.796 46.8355 87.7899 47.1479 88.7934 47.3842C89.8102 47.615 90.8 47.7309 91.7917 47.7309C92.8247 47.7309 93.5559 47.6175 93.9894 47.4041C94.4207 47.1888 94.6295 46.767 94.6295 46.1502C94.6295 45.6626 94.3572 45.2386 93.7986 44.878C93.2401 44.5107 92.4001 44.1026 91.2608 43.6374C90.3776 43.286 89.5745 42.9235 88.8499 42.5492C88.1353 42.1683 87.5221 41.7237 87.0163 41.1952C86.512 40.669 86.1217 40.0386 85.8402 39.304C85.5587 38.5823 85.4248 37.7097 85.4248 36.68C85.4248 34.6868 86.1217 33.1062 87.5084 31.9473Z" fill="white"/>
</mask>
<g mask="url(#mask3_18_316)">
<path fill-rule="evenodd" clip-rule="evenodd" d="M-272.372 111.829L523.308 111.829L523.308 -1012.61H-272.372L-272.372 111.829Z" fill="#03435F"/>
<path fill-rule="evenodd" clip-rule="evenodd" d="M75.4214 62.0693H109.711V20.754H75.4214V62.0693Z" fill="#03435F"/>
</g>
<path fill-rule="evenodd" clip-rule="evenodd" d="M117.645 39.8358C117.139 41.886 116.605 43.927 116.036 45.9452C115.468 47.9704 114.864 50.007 114.24 52.0569H109.843C109.387 50.9231 108.89 49.5761 108.359 48.0135C107.822 46.4443 107.276 44.7411 106.701 42.8885C106.134 41.0421 105.553 39.0876 104.958 37.0193C104.361 34.9603 103.782 32.8784 103.228 30.7715H109.18C109.378 31.7397 109.602 32.8037 109.845 33.9486C110.086 35.096 110.34 36.2777 110.606 37.4933C110.871 38.7045 111.155 39.9219 111.445 41.1511C111.738 42.3802 112.038 43.5572 112.342 44.6892C112.671 43.5031 112.994 42.2919 113.309 41.0513C113.62 39.8089 113.927 38.5885 114.219 37.3892C114.508 36.1916 114.792 35.0283 115.05 33.9081C115.314 32.7897 115.547 31.7397 115.754 30.7715H119.842C120.051 31.7397 120.271 32.7897 120.527 33.9081C120.777 35.0283 121.043 36.1916 121.324 37.3892C121.597 38.5885 121.894 39.8089 122.191 41.0513C122.498 42.2919 122.811 43.5031 123.136 44.6892C123.442 43.5572 123.746 42.3802 124.053 41.1511C124.359 39.9219 124.647 38.7045 124.911 37.4933C125.174 36.2777 125.428 35.096 125.674 33.9486C125.917 32.8037 126.137 31.7397 126.339 30.7715H132.213C131.655 32.8784 131.081 34.9603 130.484 37.0193C129.882 39.0876 129.308 41.0421 128.734 42.8885C128.168 44.7411 127.61 46.4443 127.067 48.0135C126.52 49.5761 126.016 50.9231 125.567 52.0569H121.17C120.534 50.007 119.917 47.9704 119.309 45.9452C118.703 43.927 118.153 41.886 117.645 39.8358Z" fill="#03435F"/>
<mask id="mask4_18_316" style="mask-type:alpha" maskUnits="userSpaceOnUse" x="103" y="30" width="30" height="23">
<path d="M126.339 30.7715H132.214C131.655 32.8784 131.081 34.9603 130.484 37.019C129.882 39.0876 129.308 41.0425 128.733 42.8885C128.168 44.7411 127.61 46.4443 127.067 48.0135C126.52 49.5761 126.016 50.9227 125.567 52.057H121.17C120.534 50.0071 119.917 47.9701 119.309 45.9449C118.703 43.9271 118.153 41.886 117.645 39.8358C117.138 41.886 116.605 43.9271 116.036 45.9449C115.468 47.9701 114.864 50.0071 114.24 52.057H109.843C109.387 50.9227 108.89 49.5761 108.358 48.0135C107.823 46.4443 107.275 44.7411 106.701 42.8885C106.134 41.0425 105.553 39.0876 104.958 37.019C104.361 34.9603 103.782 32.8784 103.228 30.7715H109.18C109.378 31.7398 109.602 32.8033 109.845 33.9486C110.086 35.0961 110.34 36.2778 110.606 37.493C110.871 38.7042 111.155 39.9219 111.445 41.1511C111.738 42.3803 112.038 43.5572 112.342 44.6892C112.671 43.5031 112.993 42.2916 113.309 41.0514C113.62 39.8089 113.927 38.5886 114.219 37.3892C114.508 36.1913 114.791 35.028 115.05 33.9081C115.314 32.7897 115.548 31.7398 115.754 30.7715H119.842C120.051 31.7398 120.271 32.7897 120.527 33.9081C120.777 35.028 121.043 36.1913 121.324 37.3892C121.597 38.5886 121.894 39.8089 122.192 41.0514C122.498 42.2916 122.811 43.5031 123.136 44.6892C123.442 43.5572 123.746 42.3803 124.053 41.1511C124.359 39.9219 124.648 38.7042 124.911 37.493C125.174 36.2778 125.429 35.0961 125.674 33.9486C125.917 32.8033 126.137 31.7398 126.339 30.7715Z" fill="white"/>
</mask>
<g mask="url(#mask4_18_316)">
<path fill-rule="evenodd" clip-rule="evenodd" d="M-272.372 111.829L523.308 111.829L523.308 -1012.61H-272.372L-272.372 111.829Z" fill="#03435F"/>
<path fill-rule="evenodd" clip-rule="evenodd" d="M93.7559 61.5063H141.686V21.3225H93.7559V61.5063Z" fill="#03435F"/>
</g>
<path fill-rule="evenodd" clip-rule="evenodd" d="M136.206 52.0486H141.844V30.7677H136.206V52.0486Z" fill="#03435F"/>
<mask id="mask5_18_316" style="mask-type:alpha" maskUnits="userSpaceOnUse" x="136" y="30" width="6" height="23">
<path d="M136.206 52.049V30.768H141.845V52.049H136.206Z" fill="white"/>
</mask>
<g mask="url(#mask5_18_316)">
<path fill-rule="evenodd" clip-rule="evenodd" d="M-272.372 111.829L523.309 111.829L523.309 -1012.61H-272.372L-272.372 111.829Z" fill="#03435F"/>
<path fill-rule="evenodd" clip-rule="evenodd" d="M126.733 61.4978H151.316V21.3185H126.733V61.4978Z" fill="#03435F"/>
</g>
<path fill-rule="evenodd" clip-rule="evenodd" d="M146.33 25.4606L151.973 24.3926V30.7784H157.557V35.7857H151.973V43.2741C151.973 44.5416 152.182 45.5624 152.597 46.3084C153.012 47.0636 153.854 47.4423 155.115 47.4423C155.725 47.4423 156.351 47.3878 156.992 47.2631C157.638 47.1405 158.224 46.9661 158.758 46.7552L159.55 51.4496C158.867 51.7485 158.106 52.0028 157.278 52.2203C156.44 52.4334 155.426 52.5423 154.208 52.5423C152.665 52.5423 151.392 52.3204 150.382 51.871C149.369 51.4334 148.561 50.8144 147.957 50.0114C147.353 49.2224 146.931 48.2494 146.689 47.1225C146.443 45.9864 146.33 44.73 146.33 43.3577V25.4606Z" fill="#03435F"/>
<mask id="mask6_18_316" style="mask-type:alpha" maskUnits="userSpaceOnUse" x="146" y="24" width="14" height="29">
<path d="M146.33 25.4607L151.972 24.3927V30.7785H157.557V35.7858H151.972V43.2742C151.972 44.5416 152.182 45.5622 152.597 46.3085C153.012 47.0637 153.854 47.442 155.114 47.442C155.725 47.442 156.352 47.3879 156.992 47.2632C157.638 47.1402 158.224 46.9662 158.757 46.7553L159.55 51.4494C158.867 51.7485 158.106 52.0029 157.278 52.2203C156.44 52.4334 155.426 52.5424 154.209 52.5424C152.665 52.5424 151.391 52.3205 150.382 51.8711C149.369 51.4332 148.561 50.8145 147.957 50.0119C147.354 49.2225 146.931 48.2498 146.688 47.1226C146.443 45.9865 146.33 44.7297 146.33 43.3581V25.4607Z" fill="white"/>
</mask>
<g mask="url(#mask6_18_316)">
<path fill-rule="evenodd" clip-rule="evenodd" d="M-272.372 111.829L523.309 111.829L523.309 -1012.61H-272.372L-272.372 111.829Z" fill="#03435F"/>
<path fill-rule="evenodd" clip-rule="evenodd" d="M136.857 61.9916H169.022V14.9433H136.857V61.9916Z" fill="#03435F"/>
</g>
<path fill-rule="evenodd" clip-rule="evenodd" d="M161.544 41.4193C161.544 39.8791 161.778 38.428 162.246 37.0674C162.713 35.7021 163.388 34.5185 164.271 33.5046C165.156 32.4911 166.227 31.6925 167.494 31.0963C168.754 30.509 170.193 30.205 171.809 30.205C172.869 30.205 173.843 30.3117 174.728 30.5112C175.614 30.7176 176.476 31.0058 177.305 31.3797L176.134 36.1945C175.6 35.981 175.021 35.7952 174.386 35.6274C173.755 35.4684 173.044 35.3849 172.263 35.3849C170.597 35.3849 169.351 35.9402 168.536 37.0468C167.707 38.156 167.303 39.6097 167.303 41.4193C167.303 43.3307 167.687 44.8161 168.463 45.8686C169.226 46.9185 170.574 47.447 172.492 47.447C173.176 47.447 173.904 47.3764 174.692 47.2428C175.473 47.1066 176.192 46.8935 176.855 46.5943L177.646 51.5335C176.987 51.8305 176.17 52.08 175.185 52.2997C174.195 52.5135 173.112 52.6243 171.927 52.6243C170.109 52.6243 168.538 52.3295 167.228 51.751C165.917 51.1728 164.834 50.3834 163.989 49.3857C163.138 48.3858 162.525 47.2067 162.133 45.8458C161.74 44.483 161.544 43.0047 161.544 41.4193Z" fill="#03435F"/>
<mask id="mask7_18_316" style="mask-type:alpha" maskUnits="userSpaceOnUse" x="161" y="30" width="17" height="23">
<path d="M167.494 31.0965C168.754 30.5091 170.193 30.2051 171.809 30.2051C172.869 30.2051 173.843 30.3115 174.728 30.5109C175.614 30.7178 176.477 31.0056 177.305 31.3798L176.134 36.1942C175.6 35.9812 175.021 35.7953 174.386 35.6275C173.754 35.4682 173.044 35.3846 172.263 35.3846C170.597 35.3846 169.351 35.9403 168.536 37.047C167.707 38.1558 167.303 39.6095 167.303 41.4194C167.303 43.3308 167.687 44.8162 168.463 45.8687C169.226 46.9187 170.574 47.4472 172.492 47.4472C173.176 47.4472 173.904 47.3765 174.692 47.2429C175.473 47.1067 176.193 46.8937 176.855 46.5941L177.645 51.5336C176.987 51.8306 176.17 52.0798 175.185 52.2998C174.195 52.5133 173.112 52.6244 171.927 52.6244C170.109 52.6244 168.538 52.3293 167.228 51.7507C165.917 51.1726 164.834 50.3836 163.989 49.3862C163.138 48.386 162.525 47.2068 162.133 45.8459C161.74 44.4831 161.544 43.0044 161.544 41.4194C161.544 39.8792 161.779 38.4281 162.246 37.0675C162.713 35.7022 163.388 34.5183 164.271 33.5044C165.156 32.4909 166.227 31.6926 167.494 31.0965Z" fill="white"/>
</mask>
<g mask="url(#mask7_18_316)">
<path fill-rule="evenodd" clip-rule="evenodd" d="M-272.372 111.829L523.309 111.829L523.309 -1012.61H-272.372L-272.372 111.829Z" fill="#03435F"/>
<path fill-rule="evenodd" clip-rule="evenodd" d="M152.072 62.0737H187.117V20.7559H152.072V62.0737Z" fill="#03435F"/>
</g>
<path fill-rule="evenodd" clip-rule="evenodd" d="M181.294 52.0494V25.4527L186.939 24.3939V30.857C187.316 30.7231 187.799 30.5939 188.399 30.4717C188.989 30.3514 189.568 30.2877 190.122 30.2877C191.735 30.2877 193.077 30.5258 194.153 30.9954C195.224 31.4672 196.089 32.1363 196.729 33C197.378 33.8597 197.828 34.889 198.098 36.0707C198.359 37.2609 198.49 38.5858 198.49 40.0417V52.0494H192.847V40.7648C192.847 38.8235 192.614 37.4494 192.149 36.6353C191.681 35.8345 190.814 35.4289 189.554 35.4289C189.041 35.4289 188.573 35.4767 188.128 35.5673C187.688 35.6626 187.291 35.7668 186.939 35.8735V52.0494H181.294Z" fill="#03435F"/>
<mask id="mask8_18_316" style="mask-type:alpha" maskUnits="userSpaceOnUse" x="181" y="24" width="18" height="29">
<path d="M181.294 25.4526L186.939 24.3938V30.8573C187.316 30.7229 187.799 30.5938 188.399 30.4716C188.989 30.3512 189.568 30.2879 190.122 30.2879C191.735 30.2879 193.077 30.5261 194.153 30.9953C195.224 31.4674 196.089 32.1361 196.729 33.0002C197.378 33.8596 197.828 34.8889 198.098 36.071C198.359 37.2611 198.49 38.5856 198.49 40.0419V52.0492H192.848V40.7647C192.848 38.8237 192.613 37.4492 192.149 36.6352C191.681 35.8347 190.814 35.4288 189.554 35.4288C189.041 35.4288 188.573 35.4766 188.128 35.5675C187.688 35.6625 187.291 35.7666 186.939 35.8733V52.0492H181.294V25.4526Z" fill="white"/>
</mask>
<g mask="url(#mask8_18_316)">
<path fill-rule="evenodd" clip-rule="evenodd" d="M-272.372 111.829L523.309 111.829L523.309 -1012.61H-272.372L-272.372 111.829Z" fill="#03435F"/>
<path fill-rule="evenodd" clip-rule="evenodd" d="M171.821 61.4986H207.963V14.9444H171.821V61.4986Z" fill="#03435F"/>
</g>
<path fill-rule="evenodd" clip-rule="evenodd" d="M11.093 52.0562L11.093 32.7709C11.093 32.7709 13.9304 30.3512 20.1365 30.3512C25.784 30.3512 28.8852 33.3653 28.8852 39.9984V52.0562H23.2443V39.9984C23.2443 35.7736 21.2647 35.481 19.5735 35.481C17.8824 35.481 16.7498 36.379 16.7498 36.379V52.0562H11.093Z" fill="#03435F"/>
<mask id="mask9_18_316" style="mask-type:alpha" maskUnits="userSpaceOnUse" x="11" y="30" width="18" height="23">
<path d="M11.0931 32.771C11.0931 32.771 13.9305 30.3512 20.1366 30.3512C25.7841 30.3512 28.8849 33.3649 28.8849 39.9988V52.0562H23.2444V39.9988C23.2444 35.7733 21.2647 35.481 19.5736 35.481C17.8824 35.481 16.7498 36.3794 16.7498 36.3794V52.0562H11.0931L11.0931 32.771Z" fill="white"/>
</mask>
<g mask="url(#mask9_18_316)">
<path fill-rule="evenodd" clip-rule="evenodd" d="M-272.372 111.829L523.309 111.829L523.309 -1012.61H-272.372L-272.372 111.829Z" fill="#03435F"/>
<path fill-rule="evenodd" clip-rule="evenodd" d="M1.62109 61.5056H38.3574V20.9025H1.62109L1.62109 61.5056Z" fill="#03435F"/>
</g>
<path fill-rule="evenodd" clip-rule="evenodd" d="M0.465067 52.0564L0.465067 25.4551L6.11263 24.3936L6.11263 52.0564H0.465067Z" fill="#03435F"/>
<mask id="mask10_18_316" style="mask-type:alpha" maskUnits="userSpaceOnUse" x="0" y="24" width="7" height="29">
<path d="M0.465067 25.4555L6.11263 24.3936L6.11263 52.0564H0.465067L0.465067 25.4555Z" fill="white"/>
</mask>
<g mask="url(#mask10_18_316)">
<path fill-rule="evenodd" clip-rule="evenodd" d="M-272.372 111.829L523.309 111.829L523.309 -1012.61H-272.372L-272.372 111.829Z" fill="#03435F"/>
<path fill-rule="evenodd" clip-rule="evenodd" d="M-9.00745 61.5056H15.5852L15.5852 14.9448H-9.00745L-9.00745 61.5056Z" fill="#03435F"/>
</g>
<path fill-rule="evenodd" clip-rule="evenodd" d="M67.1527 42.943H54.4498C54.4498 42.943 54.7335 47.4627 60.3744 47.4627C63.1986 47.4627 66.0224 46.5622 66.0224 46.5622L66.5875 51.3902C66.5875 51.3902 63.766 52.5855 59.8162 52.5855C54.1662 52.5855 49.086 49.5759 49.086 41.1379C49.086 34.5022 53.0358 30.2888 58.6814 30.2888C67.1527 30.2888 67.7201 39.3188 67.1527 42.943ZM58.4044 34.5022C54.7335 34.5022 54.4498 38.7201 54.4498 38.7201H62.3493C62.3493 38.7201 62.0726 34.5022 58.4044 34.5022Z" fill="#03435F"/>
<mask id="mask11_18_316" style="mask-type:alpha" maskUnits="userSpaceOnUse" x="49" y="30" width="19" height="23">
<path d="M49.0862 41.1378C49.0862 34.5021 53.036 30.2887 58.6813 30.2887C67.1526 30.2887 67.72 39.3191 67.1526 42.9429H54.4501C54.4501 42.9429 54.7338 47.4626 60.3743 47.4626C63.1984 47.4626 66.0222 46.5621 66.0222 46.5621L66.5874 51.3901C66.5874 51.3901 63.7658 52.5858 59.8161 52.5858C54.1664 52.5858 49.0862 49.5761 49.0862 41.1378ZM58.4042 34.5021C54.7338 34.5021 54.4501 38.7203 54.4501 38.7203H62.3495C62.3495 38.7203 62.0724 34.5021 58.4042 34.5021Z" fill="white"/>
</mask>
<g mask="url(#mask11_18_316)">
<path fill-rule="evenodd" clip-rule="evenodd" d="M-272.373 111.829L523.31 111.829L523.31 -1012.61H-272.373L-272.373 111.829Z" fill="#03435F"/>
<path fill-rule="evenodd" clip-rule="evenodd" d="M39.6138 62.0347H76.783V20.8395H39.6138V62.0347Z" fill="#03435F"/>
</g>
<mask id="mask12_18_316" style="mask-type:alpha" maskUnits="userSpaceOnUse" x="205" y="20" width="38" height="49">
<path d="M205.971 24.3989C205.971 23.1131 222.208 20.3382 233.097 20.3382C237.819 20.3382 241.535 20.8601 242.486 22.2512C247.389 28.7099 212.872 69.2306 209.996 68.0014C207.689 67.3868 228.398 41.5953 224.946 31.1524C223.223 25.6303 205.971 26.2445 205.971 24.3989Z" fill="white"/>
</mask>
<g mask="url(#mask12_18_316)">
<path fill-rule="evenodd" clip-rule="evenodd" d="M196.499 77.478H252.434V10.8892H196.499V77.478Z" fill="#ED342B"/>
</g>
<mask id="mask13_18_316" style="mask-type:alpha" maskUnits="userSpaceOnUse" x="235" y="0" width="16" height="17">
<path d="M235.298 8.43463C235.298 4.02395 238.646 0.454548 242.773 0.454548C246.904 0.454548 250.248 4.02395 250.248 8.43463C250.248 12.8476 246.904 16.417 242.773 16.417C238.646 16.417 235.298 12.8476 235.298 8.43463Z" fill="white"/>
</mask>
<g mask="url(#mask13_18_316)">
<path fill-rule="evenodd" clip-rule="evenodd" d="M225.826 25.8664L259.72 25.8664V-8.99484H225.826V25.8664Z" fill="#ED342B"/>
</g>
</g>
<defs>
<clipPath id="clip0_18_316">
<rect width="250.617" height="68.4831" fill="white"/>
</clipPath>
</defs>
</svg>
