<svg width="100" height="29" viewBox="0 0 100 29" fill="none" xmlns="http://www.w3.org/2000/svg">
<path d="M27.4009 20.5128V8.1448H32.5291C33.5346 8.1448 34.339 8.24536 34.8921 8.44646C35.3948 8.69784 35.8473 9.10006 36.149 9.6531C36.5009 10.2061 36.6518 10.8095 36.6518 11.5133C36.6518 12.368 36.4004 13.1222 35.8473 13.7255C35.1905 14.3927 34.3167 14.8028 33.3838 14.8819C33.786 15.083 34.0877 15.2841 34.2888 15.4852C34.7412 15.9377 35.1937 16.4907 35.5959 17.1443L37.607 20.5128H35.6462L34.1379 17.9487C33.6854 17.1946 33.3335 16.5913 33.0318 16.2393C32.7302 15.8371 32.4788 15.5355 32.2274 15.3846C32.0263 15.2338 31.7749 15.1332 31.5236 15.083L30.6689 14.9824H28.9092V20.5128H27.4009ZM28.9092 13.5747H32.2274C32.9313 13.5747 33.4341 13.5244 33.8363 13.3736C34.2385 13.2227 34.5401 12.9714 34.7412 12.6194C34.9424 12.2675 35.0429 11.9155 35.0429 11.5133C35.0429 10.91 34.8418 10.4575 34.4396 10.0553C34.0877 9.70338 33.4341 9.50227 32.5794 9.50227H28.9092V13.5747ZM43.6402 17.5968L45.0982 17.7979C44.8971 18.7029 44.4446 19.457 43.8413 19.9598C43.1496 20.4852 42.2958 20.752 41.428 20.7139C40.1711 20.7139 39.2159 20.3117 38.512 19.5073C37.7305 18.5452 37.336 17.3261 37.4059 16.0885C37.4059 14.5802 37.8081 13.4238 38.512 12.5691C39.2661 11.7647 40.1711 11.3625 41.3275 11.3625C42.4838 11.3625 43.3888 11.7647 44.0927 12.5691C44.7966 13.3736 45.1485 14.5299 45.1485 15.9879V16.3902H38.9142C38.9645 17.3957 39.2159 18.1498 39.6683 18.6526C40.1208 19.2056 40.7242 19.457 41.428 19.457C41.9308 19.457 42.3833 19.3062 42.7855 19.0045C43.1374 18.7029 43.4391 18.2504 43.6402 17.5968ZM38.9645 15.1835H43.6402C43.5899 14.4294 43.4391 13.8261 43.1374 13.4741C42.6849 12.8708 42.0816 12.5691 41.3777 12.5691C40.7242 12.5691 40.1711 12.8205 39.7186 13.273C39.2661 13.7758 39.0148 14.3791 38.9645 15.1835ZM45.9529 20.5128V11.5636H47.2098V12.8205C47.8131 11.815 48.7181 11.3625 49.8745 11.3625C50.3772 11.3625 50.8297 11.4128 51.2822 11.6139C51.6844 11.815 52.0364 12.0664 52.2375 12.368C52.4386 12.72 52.5894 13.0719 52.69 13.5244L52.7402 14.9824V20.5128H51.3325V15.0327C51.3325 14.4294 51.2822 13.9769 51.1817 13.6752C51.0308 13.3736 50.88 13.1222 50.5783 12.9211C50.1681 12.7031 49.6997 12.6198 49.2395 12.6829C48.7792 12.7461 48.3506 12.9526 48.0142 13.273C47.5618 13.6752 47.3607 14.4796 47.3607 15.5857V20.5128H45.9529Z" fill="#E65741"/>
<path d="M55.3042 20.5128V8.1448H57.6169L60.3318 16.8929L60.8849 18.7029L61.5385 16.7421L64.3037 8.1448H66.365V20.5128H64.8567V10.1559L61.4882 20.5128H60.1307L56.7622 9.95476V20.5128H55.3042ZM67.4711 16.0382C67.4711 14.3791 67.9236 13.1222 68.7783 12.3178C69.4822 11.6642 70.3871 11.3625 71.3927 11.3625C72.549 11.3625 73.5043 11.7647 74.2081 12.5691C74.9623 13.3736 75.3142 14.4796 75.3142 15.8874C75.3142 17.0437 75.1634 17.9487 74.8617 18.6023C74.5329 19.2241 74.0409 19.7445 73.4385 20.1077C72.8362 20.4708 72.1463 20.6631 71.4429 20.6637C70.2363 20.7139 69.2811 20.3117 68.5269 19.5073C67.823 18.7029 67.4711 17.5465 67.4711 16.0382ZM68.9291 16.0382C68.9291 17.1443 69.1805 18.0493 69.633 18.6023C70.0855 19.1554 70.6888 19.457 71.3927 19.457C72.0965 19.457 72.6999 19.1554 73.1523 18.6023C73.6551 17.999 73.8562 17.1443 73.8562 15.9879C73.8562 14.8819 73.6551 14.0272 73.1523 13.4741C72.6999 12.8708 72.0965 12.5691 71.3927 12.5691C70.6888 12.5691 70.0855 12.8708 69.633 13.4238C69.1805 14.0272 68.9291 14.8819 68.9291 16.0382ZM76.37 20.5128V11.5636H77.6269V12.8205C78.2303 11.815 79.1352 11.3625 80.2916 11.3625C80.7944 11.3625 81.2971 11.4128 81.6993 11.6139C82.1016 11.815 82.4535 12.0664 82.6546 12.368C82.8557 12.72 83.0065 13.0719 83.1071 13.5244L83.1574 14.9824V20.5128H81.7496V15.0327C81.7496 14.4294 81.6993 13.9769 81.5988 13.6752C81.4982 13.3736 81.2971 13.1222 80.9955 12.9211C80.5852 12.7031 80.1168 12.6198 79.6566 12.6829C79.1964 12.7461 78.7677 12.9525 78.4314 13.273C77.9789 13.6752 77.7778 14.4796 77.7778 15.5857V20.5128H76.37ZM90.4474 17.5968L91.9055 17.7979C91.7044 18.7029 91.2519 19.457 90.6485 19.9598C89.9568 20.4852 89.1031 20.752 88.2353 20.7139C87.0286 20.7139 86.0231 20.3117 85.3192 19.5073C84.5557 18.538 84.1794 17.3196 84.2634 16.0885C84.2634 14.5802 84.6154 13.4238 85.3192 12.5691C86.0734 11.7647 86.9784 11.3625 88.1347 11.3625C89.2911 11.3625 90.1961 11.7647 90.8999 12.5691C91.6038 13.3736 91.9557 14.5299 91.9557 15.9879V16.3902H85.7215C85.7717 17.3957 86.0231 18.1498 86.4756 18.6526C86.9784 19.2056 87.5314 19.457 88.2353 19.457C88.7883 19.457 89.1905 19.3062 89.5927 19.0045C89.9447 18.7029 90.2463 18.2504 90.4474 17.5968ZM85.7717 15.1835H90.4977C90.3972 14.4294 90.2463 13.826 89.9447 13.4741C89.4922 12.8708 88.8889 12.5691 88.185 12.5691C87.5314 12.5691 86.9784 12.8205 86.5259 13.273C86.0734 13.7758 85.822 14.3791 85.7717 15.1835ZM93.0115 23.9316L92.8607 22.5239L93.6651 22.6747C93.9668 22.6747 94.2182 22.6244 94.4193 22.4736C94.6204 22.3731 94.7712 22.2222 94.8718 22.0211C95.1252 21.5409 95.3274 21.0354 95.4751 20.5128L92.2574 11.5636H93.816L95.5254 16.7421L96.179 18.8034L96.732 16.7421L98.542 11.5636H99.9497L96.7823 20.6637C96.4303 21.6189 96.179 22.3228 95.9779 22.6747C95.7265 23.1775 95.4248 23.5294 95.0729 23.7808C94.7712 24.0322 94.369 24.1327 93.9165 24.1327C93.6651 24.1327 93.3635 24.0825 93.0115 23.9316Z" fill="#27799D"/>
<path d="M18.502 13.3233C20.1125 13.3233 21.418 12.0177 21.418 10.4072C21.418 8.79677 20.1125 7.49121 18.502 7.49121C16.8915 7.49121 15.5859 8.79677 15.5859 10.4072C15.5859 12.0177 16.8915 13.3233 18.502 13.3233Z" fill="#E65741"/>
<path d="M7.44101 6.63651L8.59738 11.1614C8.84876 12.1166 9.60291 12.9211 10.6587 13.1725C12.167 13.5747 13.7759 12.6697 14.2284 11.1111C14.6808 9.55255 13.7759 7.9437 12.2173 7.54148L7.6924 6.38513C7.54157 6.33485 7.39074 6.48568 7.44101 6.63651Z" fill="#65BBC2"/>
<path d="M22.4737 21.1664L21.2671 16.6415C21.0157 15.6863 20.3118 14.8819 19.256 14.6305C17.6974 14.2283 16.0886 15.1332 15.6864 16.6918C15.2339 18.2504 16.1389 19.8592 17.6974 20.2614L22.2223 21.4178C22.3731 21.4681 22.524 21.3172 22.4737 21.1664ZM7.6924 21.4178L12.2173 20.2614C13.1725 20.0101 13.977 19.2559 14.2283 18.2001C14.6306 16.6918 13.7256 15.083 12.167 14.6305C10.6084 14.178 8.99959 15.083 8.59737 16.6415L7.44101 21.1664C7.39074 21.3172 7.54157 21.4681 7.6924 21.4178Z" fill="#27799D"/>
</svg>
