<svg width="50" height="50" viewBox="0 0 50 50" fill="none" xmlns="http://www.w3.org/2000/svg">
<path d="M40.625 14.0625H9.375C6.78617 14.0625 4.6875 16.1612 4.6875 18.75V37.5C4.6875 40.0888 6.78617 42.1875 9.375 42.1875H40.625C43.2138 42.1875 45.3125 40.0888 45.3125 37.5V18.75C45.3125 16.1612 43.2138 14.0625 40.625 14.0625Z" stroke="black" stroke-opacity="0.7" stroke-width="3" stroke-linejoin="round"/>
<path d="M40.1719 14.0625V11.1328C40.1716 10.4143 40.0128 9.70462 39.7068 9.05452C39.4007 8.40442 38.9549 7.82988 38.4012 7.3719C37.8475 6.91392 37.1996 6.58378 36.5036 6.40504C35.8077 6.22631 35.0808 6.20338 34.375 6.33789L8.65625 10.7275C7.53938 10.9404 6.53179 11.5363 5.80727 12.4125C5.08276 13.2888 4.68673 14.3904 4.6875 15.5273V20.3125" stroke="black" stroke-opacity="0.7" stroke-width="3" stroke-linejoin="round"/>
<path d="M34.5073 33.4746C33.6693 33.4746 32.85 33.226 32.1532 32.7604C31.4564 32.2949 30.9133 31.6331 30.5926 30.8588C30.2719 30.0846 30.1879 29.2326 30.3514 28.4106C30.5149 27.5887 30.9185 26.8337 31.5111 26.2411C32.1037 25.6485 32.8587 25.2449 33.6807 25.0814C34.5026 24.9179 35.3546 25.0018 36.1288 25.3225C36.9031 25.6433 37.5649 26.1864 38.0305 26.8832C38.4961 27.58 38.7446 28.3992 38.7446 29.2373C38.7446 30.3611 38.2982 31.4388 37.5035 32.2335C36.7089 33.0281 35.6311 33.4746 34.5073 33.4746Z" fill="black" fill-opacity="0.7"/>
</svg>
